<?xml version="1.0" encoding="iso-8859-1"?>
<!-- Generator: Adobe Illustrator 19.0.0, SVG Export Plug-In . SVG Version: 6.00 Build 0)  -->
<svg version="1.1" id="Layer_1" xmlns="http://www.w3.org/2000/svg" xmlns:xlink="http://www.w3.org/1999/xlink" x="0px" y="0px"
	 viewBox="0 0 512 512" style="enable-background:new 0 0 512 512;" xml:space="preserve">
<rect y="0.256" style="fill:#CCCCCC;" width="512" height="511.488"/>
<rect x="419.44" y="41.424" width="50.28" height="49.304"/>
<rect x="419.44" y="420.4" width="50.28" height="49.304"/>
<rect x="42.16" y="41.424" width="50.28" height="49.304"/>
<rect x="42.16" y="420.4" width="50.28" height="49.304"/>
<path d="M268.808,307.288h-47.544c0-23.224,2.248-38.568,6.76-46.016c4.512-7.448,16.328-15.136,35.464-23.064l18.24-7.784
	c15.168-6.288,22.752-18.992,22.752-38.128c0-15.848-2.832-26.064-8.504-30.648c-5.672-4.568-18.344-6.856-38.016-6.856
	c-18.448,0-30.752,2.424-36.896,7.272s-9.216,14.52-9.216,29l0.2,10.664h-46.52l0.2-10.248c0-30.192,6.488-50.52,19.472-60.976
	s38.328-15.68,76.048-15.68c33.336,0,56.128,5.4,68.352,16.184c12.224,10.8,18.344,30.824,18.344,60.056
	c0,23.096-3.008,39.248-9.016,48.48c-6.016,9.224-19.336,18.208-39.968,26.952c-20.088,8.48-30.136,19.88-30.136,34.224v6.568
	H268.808z M268.192,346.64v50.424h-46.936V346.64H268.192z"/>
<g>
</g>
<g>
</g>
<g>
</g>
<g>
</g>
<g>
</g>
<g>
</g>
<g>
</g>
<g>
</g>
<g>
</g>
<g>
</g>
<g>
</g>
<g>
</g>
<g>
</g>
<g>
</g>
<g>
</g>
</svg>
